<svg xmlns="http://www.w3.org/2000/svg" width="240" height="290" viewBox="0 0 240 290"><defs><mask id="p"><rect width="240" height="290" fill="white"></rect><circle cx="0" cy="0" r="9" fill="black"></circle><circle cx="0" cy="290" r="9" fill="black"></circle><circle cx="26" cy="0" r="9" fill="black"></circle><circle cx="26" cy="290" r="9" fill="black"></circle><circle cx="52" cy="0" r="9" fill="black"></circle><circle cx="52" cy="290" r="9" fill="black"></circle><circle cx="78" cy="0" r="9" fill="black"></circle><circle cx="78" cy="290" r="9" fill="black"></circle><circle cx="104" cy="0" r="9" fill="black"></circle><circle cx="104" cy="290" r="9" fill="black"></circle><circle cx="130" cy="0" r="9" fill="black"></circle><circle cx="130" cy="290" r="9" fill="black"></circle><circle cx="156" cy="0" r="9" fill="black"></circle><circle cx="156" cy="290" r="9" fill="black"></circle><circle cx="182" cy="0" r="9" fill="black"></circle><circle cx="182" cy="290" r="9" fill="black"></circle><circle cx="208" cy="0" r="9" fill="black"></circle><circle cx="208" cy="290" r="9" fill="black"></circle><circle cx="234" cy="0" r="9" fill="black"></circle><circle cx="234" cy="290" r="9" fill="black"></circle><circle cx="0" cy="0" r="9" fill="black"></circle><circle cx="240" cy="0" r="9" fill="black"></circle><circle cx="0" cy="26" r="9" fill="black"></circle><circle cx="240" cy="26" r="9" fill="black"></circle><circle cx="0" cy="52" r="9" fill="black"></circle><circle cx="240" cy="52" r="9" fill="black"></circle><circle cx="0" cy="78" r="9" fill="black"></circle><circle cx="240" cy="78" r="9" fill="black"></circle><circle cx="0" cy="104" r="9" fill="black"></circle><circle cx="240" cy="104" r="9" fill="black"></circle><circle cx="0" cy="130" r="9" fill="black"></circle><circle cx="240" cy="130" r="9" fill="black"></circle><circle cx="0" cy="156" r="9" fill="black"></circle><circle cx="240" cy="156" r="9" fill="black"></circle><circle cx="0" cy="182" r="9" fill="black"></circle><circle cx="240" cy="182" r="9" fill="black"></circle><circle cx="0" cy="208" r="9" fill="black"></circle><circle cx="240" cy="208" r="9" fill="black"></circle><circle cx="0" cy="234" r="9" fill="black"></circle><circle cx="240" cy="234" r="9" fill="black"></circle><circle cx="0" cy="260" r="9" fill="black"></circle><circle cx="240" cy="260" r="9" fill="black"></circle><circle cx="0" cy="286" r="9" fill="black"></circle><circle cx="240" cy="286" r="9" fill="black"></circle></mask></defs><rect width="240" height="290" fill="#FFFFFF" mask="url(#p)"></rect><rect x="22" y="22" width="196" height="246" rx="4" fill="#CFE6F2"></rect><g transform="translate(60.0,75.0)"><rect x="14" y="20" width="92" height="104" rx="6" fill="#FFFFFF" stroke="#141416" stroke-width="7" stroke-linejoin="round"></rect><g fill="#141416"><rect x="30" y="36" width="16" height="16" rx="2"></rect><rect x="52" y="36" width="16" height="16" rx="2"></rect><rect x="74" y="36" width="16" height="16" rx="2"></rect><rect x="30" y="62" width="16" height="16" rx="2"></rect><rect x="74" y="62" width="16" height="16" rx="2"></rect></g><rect x="52" y="62" width="16" height="16" rx="2" fill="#FF6A1F"></rect><path d="M46 124 V98 H74 V124" fill="#FF6A1F" stroke="#141416" stroke-width="7" stroke-linejoin="round"></path><path d="M4 124 H116" stroke="#141416" stroke-width="7" stroke-linecap="round" fill="none"></path></g></svg>