<svg xmlns="http://www.w3.org/2000/svg" width="240" height="290" viewBox="0 0 240 290"><defs><mask id="p"><rect width="240" height="290" fill="white"/><circle cx="0" cy="0" r="9" fill="black"/><circle cx="0" cy="290" r="9" fill="black"/><circle cx="26" cy="0" r="9" fill="black"/><circle cx="26" cy="290" r="9" fill="black"/><circle cx="52" cy="0" r="9" fill="black"/><circle cx="52" cy="290" r="9" fill="black"/><circle cx="78" cy="0" r="9" fill="black"/><circle cx="78" cy="290" r="9" fill="black"/><circle cx="104" cy="0" r="9" fill="black"/><circle cx="104" cy="290" r="9" fill="black"/><circle cx="130" cy="0" r="9" fill="black"/><circle cx="130" cy="290" r="9" fill="black"/><circle cx="156" cy="0" r="9" fill="black"/><circle cx="156" cy="290" r="9" fill="black"/><circle cx="182" cy="0" r="9" fill="black"/><circle cx="182" cy="290" r="9" fill="black"/><circle cx="208" cy="0" r="9" fill="black"/><circle cx="208" cy="290" r="9" fill="black"/><circle cx="234" cy="0" r="9" fill="black"/><circle cx="234" cy="290" r="9" fill="black"/><circle cx="0" cy="0" r="9" fill="black"/><circle cx="240" cy="0" r="9" fill="black"/><circle cx="0" cy="26" r="9" fill="black"/><circle cx="240" cy="26" r="9" fill="black"/><circle cx="0" cy="52" r="9" fill="black"/><circle cx="240" cy="52" r="9" fill="black"/><circle cx="0" cy="78" r="9" fill="black"/><circle cx="240" cy="78" r="9" fill="black"/><circle cx="0" cy="104" r="9" fill="black"/><circle cx="240" cy="104" r="9" fill="black"/><circle cx="0" cy="130" r="9" fill="black"/><circle cx="240" cy="130" r="9" fill="black"/><circle cx="0" cy="156" r="9" fill="black"/><circle cx="240" cy="156" r="9" fill="black"/><circle cx="0" cy="182" r="9" fill="black"/><circle cx="240" cy="182" r="9" fill="black"/><circle cx="0" cy="208" r="9" fill="black"/><circle cx="240" cy="208" r="9" fill="black"/><circle cx="0" cy="234" r="9" fill="black"/><circle cx="240" cy="234" r="9" fill="black"/><circle cx="0" cy="260" r="9" fill="black"/><circle cx="240" cy="260" r="9" fill="black"/><circle cx="0" cy="286" r="9" fill="black"/><circle cx="240" cy="286" r="9" fill="black"/></mask></defs><rect width="240" height="290" fill="#FFFFFF" mask="url(#p)"/><rect x="22" y="22" width="196" height="246" rx="4" fill="#E3EFD6"/><g transform="translate(60.0,75.0)"><path d="M60 8 C28 8 12 32 16 56 C20 76 44 90 52 98 H68 C76 90 100 76 104 56 C108 32 92 8 60 8 Z" fill="#FF6A1F" stroke="#141416" stroke-width="7" stroke-linejoin="round"/><path d="M60 8 C46 30 46 70 54 98 M60 8 C74 30 74 70 66 98" stroke="#141416" stroke-width="7" stroke-linecap="round" fill="none"/><path d="M52 98 L50 112 M68 98 L70 112" stroke="#141416" stroke-width="7" stroke-linecap="round" fill="none"/><rect x="44" y="110" width="32" height="20" rx="4" fill="#FFFFFF" stroke="#141416" stroke-width="7" stroke-linejoin="round"/></g></svg>