<svg xmlns="http://www.w3.org/2000/svg" width="480" height="400" viewBox="0 0 480 400"><defs><linearGradient id="v" x1="0" y1="0" x2="0" y2="1"><stop offset="0" stop-color="#FFB38A"/><stop offset="1" stop-color="#FFE9D2"/></linearGradient></defs>
<rect width="480" height="400" fill="#EFE6DA"/>
<rect x="250" y="40" width="190" height="200" rx="10" fill="url(#v)" stroke="#141416" stroke-width="5"/>
<circle cx="380" cy="110" r="26" fill="#FF7A33"/>
<g><rect x="262" y="170" width="40" height="66" fill="#FFFFFF"/><path d="M258 172 L282 152 L306 172Z" fill="#C85A36"/><rect x="306" y="186" width="44" height="50" fill="#F2C94C"/><path d="M302 188 L328 168 L354 188Z" fill="#D9643B"/><rect x="354" y="176" width="42" height="60" fill="#8FC1D8"/><path d="M350 178 L375 158 L400 178Z" fill="#C85A36"/><rect x="400" y="190" width="36" height="46" fill="#F6E7C8"/></g>
<path d="M345 40 V240 M250 140 H440" stroke="#141416" stroke-width="5"/>
<rect x="20" y="200" width="300" height="120" rx="16" fill="#FFFFFF" stroke="#141416" stroke-width="5"/>
<rect x="20" y="150" width="300" height="70" rx="16" fill="#CFE6F2" stroke="#141416" stroke-width="5"/>
<rect x="44" y="172" width="100" height="40" rx="14" fill="#FFFFFF" stroke="#141416" stroke-width="4"/><rect x="160" y="172" width="100" height="40" rx="14" fill="#FFFFFF" stroke="#141416" stroke-width="4"/>
<path d="M20 262 H320" stroke="#FF7A33" stroke-width="10"/>
<g transform="translate(360 250)"><rect width="80" height="70" rx="8" fill="#F2C94C" stroke="#141416" stroke-width="5"/><path d="M40 0 V-50 M20 -50 H60 L52 -80 H28 Z" stroke="#141416" stroke-width="5" fill="#FFFFFF" stroke-linejoin="round"/></g>
<rect x="0" y="340" width="480" height="60" fill="#D9C4A8"/><path d="M0 340 H480" stroke="#141416" stroke-width="4"/>
</svg>
