<svg xmlns="http://www.w3.org/2000/svg" width="480" height="400" viewBox="0 0 480 400"><defs><linearGradient id="s" x1="0" y1="0" x2="0" y2="1"><stop offset="0" stop-color="#FFB38A"/><stop offset="0.6" stop-color="#FFD9B8"/><stop offset="1" stop-color="#FFE9D2"/></linearGradient><linearGradient id="w" x1="0" y1="0" x2="0" y2="1"><stop offset="0" stop-color="#7FB2D9"/><stop offset="1" stop-color="#4E86B8"/></linearGradient></defs>
<rect width="480" height="400" fill="url(#s)"/><circle cx="360" cy="150" r="54" fill="#FF7A33"/>
<rect y="236" width="480" height="164" fill="url(#w)"/><path d="M0 250 H480" stroke="#FFD9B8" stroke-width="3" opacity="0.6"/>
<path d="M300 236 Q360 232 420 236" stroke="#FFB38A" stroke-width="6" opacity="0.7"/>
<path d="M0 400 V210 Q120 150 250 205 Q300 230 330 400 Z" fill="#E9D3B7"/>
<g>
<rect x="20" y="190" width="46" height="60" fill="#F6E7C8"/><path d="M16 192 L43 172 L70 192 Z" fill="#D9643B"/>
<rect x="70" y="175" width="52" height="78" fill="#FFFFFF"/><path d="M66 177 L96 154 L126 177 Z" fill="#C85A36"/>
<rect x="126" y="190" width="44" height="66" fill="#F2C94C"/><path d="M122 192 L148 172 L174 192 Z" fill="#D9643B"/>
<rect x="175" y="200" width="54" height="62" fill="#8FC1D8"/><path d="M171 202 L202 180 L233 202 Z" fill="#C85A36"/>
<g fill="#141416" opacity="0.75"><rect x="30" y="205" width="10" height="14"/><rect x="48" y="205" width="10" height="14"/><rect x="82" y="190" width="10" height="14"/><rect x="102" y="190" width="10" height="14"/><rect x="82" y="215" width="10" height="14"/><rect x="102" y="215" width="10" height="14"/><rect x="138" y="205" width="10" height="14"/><rect x="187" y="215" width="10" height="14"/><rect x="207" y="215" width="10" height="14"/></g>
</g>
<g transform="translate(40 290)"><rect width="150" height="70" rx="14" fill="#F2C230" stroke="#141416" stroke-width="5"/><rect x="14" y="14" width="30" height="24" rx="4" fill="#FFFFFF" stroke="#141416" stroke-width="4"/><rect x="58" y="14" width="30" height="24" rx="4" fill="#FFFFFF" stroke="#141416" stroke-width="4"/><rect x="102" y="14" width="34" height="24" rx="4" fill="#FFFFFF" stroke="#141416" stroke-width="4"/><circle cx="36" cy="72" r="10" fill="#141416"/><circle cx="114" cy="72" r="10" fill="#141416"/><path d="M75 0 L75 -30 M60 -30 H90" stroke="#141416" stroke-width="4"/></g>
<path d="M0 372 H480" stroke="#141416" stroke-width="4"/></svg>