<svg xmlns="http://www.w3.org/2000/svg" width="240" height="290" viewBox="0 0 240 290"><defs><mask id="p"><rect width="240" height="290" fill="white"/><circle cx="0" cy="0" r="9" fill="black"/><circle cx="0" cy="290" r="9" fill="black"/><circle cx="26" cy="0" r="9" fill="black"/><circle cx="26" cy="290" r="9" fill="black"/><circle cx="52" cy="0" r="9" fill="black"/><circle cx="52" cy="290" r="9" fill="black"/><circle cx="78" cy="0" r="9" fill="black"/><circle cx="78" cy="290" r="9" fill="black"/><circle cx="104" cy="0" r="9" fill="black"/><circle cx="104" cy="290" r="9" fill="black"/><circle cx="130" cy="0" r="9" fill="black"/><circle cx="130" cy="290" r="9" fill="black"/><circle cx="156" cy="0" r="9" fill="black"/><circle cx="156" cy="290" r="9" fill="black"/><circle cx="182" cy="0" r="9" fill="black"/><circle cx="182" cy="290" r="9" fill="black"/><circle cx="208" cy="0" r="9" fill="black"/><circle cx="208" cy="290" r="9" fill="black"/><circle cx="234" cy="0" r="9" fill="black"/><circle cx="234" cy="290" r="9" fill="black"/><circle cx="0" cy="0" r="9" fill="black"/><circle cx="240" cy="0" r="9" fill="black"/><circle cx="0" cy="26" r="9" fill="black"/><circle cx="240" cy="26" r="9" fill="black"/><circle cx="0" cy="52" r="9" fill="black"/><circle cx="240" cy="52" r="9" fill="black"/><circle cx="0" cy="78" r="9" fill="black"/><circle cx="240" cy="78" r="9" fill="black"/><circle cx="0" cy="104" r="9" fill="black"/><circle cx="240" cy="104" r="9" fill="black"/><circle cx="0" cy="130" r="9" fill="black"/><circle cx="240" cy="130" r="9" fill="black"/><circle cx="0" cy="156" r="9" fill="black"/><circle cx="240" cy="156" r="9" fill="black"/><circle cx="0" cy="182" r="9" fill="black"/><circle cx="240" cy="182" r="9" fill="black"/><circle cx="0" cy="208" r="9" fill="black"/><circle cx="240" cy="208" r="9" fill="black"/><circle cx="0" cy="234" r="9" fill="black"/><circle cx="240" cy="234" r="9" fill="black"/><circle cx="0" cy="260" r="9" fill="black"/><circle cx="240" cy="260" r="9" fill="black"/><circle cx="0" cy="286" r="9" fill="black"/><circle cx="240" cy="286" r="9" fill="black"/></mask></defs><rect width="240" height="290" fill="#FFFFFF" mask="url(#p)"/><rect x="22" y="22" width="196" height="246" rx="4" fill="#FFE6CF"/><g transform="translate(60.0,75.0)"><path d="M18 40 H102 L94 124 H26 Z" fill="#FFFFFF" stroke="#141416" stroke-width="7" stroke-linejoin="round"/><path d="M40 40 V28 C40 16 48 10 60 10 C72 10 80 16 80 28 V40" stroke="#141416" stroke-width="7" stroke-linecap="round" fill="none"/><circle cx="60" cy="80" r="18" fill="#FF6A1F" stroke="#141416" stroke-width="6"/><path d="M52 80 L58 86 L70 74" stroke="#FFFFFF" stroke-width="5" stroke-linecap="round" stroke-linejoin="round" fill="none"/></g></svg>